<?xml version="1.0" ?>
<!DOCTYPE svg  PUBLIC '-//W3C//DTD SVG 1.1//EN'  'http://www.w3.org/Graphics/SVG/1.1/DTD/svg11.dtd'>
<!-- Uploaded to: SVG Repo, www.svgrepo.com, Generator: SVG Repo Mixer Tools -->
<svg fill="#000000" width="800px" height="800px" viewBox="0 0 129 129" style="fill-rule:evenodd;clip-rule:evenodd;stroke-linejoin:round;stroke-miterlimit:2;" version="1.1" xml:space="preserve" xmlns="http://www.w3.org/2000/svg" xmlns:serif="http://www.serif.com/" xmlns:xlink="http://www.w3.org/1999/xlink">
<g transform="matrix(1,0,0,1,-157,-678)">
<g id="drill-tool" transform="matrix(1,0,0,1,157.709,678.333)">
<rect height="128" style="fill:none;" width="128" x="0" y="0"/>
<g>
<g transform="matrix(1,0,0,1,-5872.2,-3300)">
<path d="M5959.4,3323.76L5979.16,3304C5979.94,3303.22 5979.94,3301.96 5979.16,3301.18C5978.38,3300.39 5977.11,3300.39 5976.33,3301.18L5956.57,3320.94C5955.79,3321.72 5955.79,3322.98 5956.57,3323.76C5957.35,3324.55 5958.62,3324.55 5959.4,3323.76Z" style="fill:rgb(102,102,102);"/>
</g>
<g transform="matrix(1,0,0,1,-5872.2,-3300)">
<path d="M5956.97,3335.98C5956.97,3335.98 5958.77,3334.18 5960.58,3332.37C5962.63,3330.32 5962.63,3327 5960.58,3324.95C5958.95,3323.31 5957.03,3321.39 5955.39,3319.75C5953.34,3317.7 5950.02,3317.7 5947.97,3319.75C5946.16,3321.57 5944.36,3323.37 5944.36,3323.37L5956.97,3335.98Z" style="fill:rgb(182,182,182);"/>
</g>
<g transform="matrix(1,0,0,1,-5872.2,-3300)">
<path d="M5958.19,3322.55C5960.24,3324.6 5960.24,3327.92 5958.19,3329.97C5956.37,3331.78 5954.58,3333.58 5954.58,3333.58L5944.36,3323.37L5956.97,3335.98C5956.97,3335.98 5958.77,3334.18 5960.58,3332.37C5962.63,3330.32 5962.63,3327 5960.58,3324.95L5958.19,3322.55Z" style="fill:rgb(136,136,136);"/>
</g>
<g transform="matrix(1,0,0,1,-5872.2,-3300)">
<path d="M5948.14,3327.14L5951.75,3323.53C5953.8,3321.48 5957.12,3321.48 5959.17,3323.53L5960.58,3324.95C5958.95,3323.31 5957.03,3321.39 5955.39,3319.75C5953.34,3317.7 5950.02,3317.7 5947.97,3319.75C5946.16,3321.57 5944.36,3323.37 5944.36,3323.37L5948.14,3327.14Z" style="fill:rgb(200,200,200);"/>
</g>
<g transform="matrix(1,0,0,1,-5872.2,-3300)">
<path d="M5918.5,3379.59L5948.97,3425.42L5978.16,3396.23C5978.16,3396.23 5975.97,3392.93 5973.65,3389.45C5972.34,3387.46 5970.2,3386.17 5967.82,3385.94C5965.45,3385.7 5963.1,3386.54 5961.42,3388.23L5957.97,3391.67L5937.38,3360.7L5918.5,3379.59Z" style="fill:rgb(37,183,54);"/>
</g>
<g transform="matrix(1,0,0,1,-5872.2,-3300)">
<path d="M5958.02,3406.64C5956.02,3408.64 5953.23,3409.63 5950.42,3409.35C5947.61,3409.07 5945.08,3407.55 5943.51,3405.2C5935.65,3393.37 5923.3,3374.79 5923.3,3374.79L5918.5,3379.59L5948.97,3425.42L5978.16,3396.23C5978.16,3396.23 5975.97,3392.93 5973.65,3389.45C5972.77,3388.11 5971.51,3387.09 5970.06,3386.5L5973.3,3391.36C5973.3,3391.36 5964.78,3399.88 5958.02,3406.64Z" style="fill:rgb(28,137,40);"/>
</g>
<g transform="matrix(1,0,0,1,-5872.2,-3300)">
<path d="M5918.03,3378.88L5922.89,3386.19L5941.8,3367.35L5936.91,3360L5918.03,3378.88Z" style="fill:rgb(21,103,30);"/>
</g>
<g transform="matrix(1,0,0,1,-5872.2,-3300)">
<path d="M5896.81,3360.81C5895.16,3362.46 5894.23,3364.7 5894.23,3367.04C5894.23,3369.37 5895.16,3371.61 5896.81,3373.26C5900.01,3376.45 5903.88,3380.33 5907.08,3383.52C5908.73,3385.18 5910.97,3386.1 5913.3,3386.1C5915.64,3386.1 5917.87,3385.18 5919.53,3383.52C5929.19,3373.86 5947.62,3355.43 5956.7,3346.35C5959.64,3343.41 5959.64,3338.65 5956.7,3335.71C5953.07,3332.07 5948.27,3327.27 5944.63,3323.64C5941.69,3320.7 5936.93,3320.7 5933.99,3323.64C5924.91,3332.72 5906.48,3351.15 5896.81,3360.81Z" style="fill:rgb(37,183,54);"/>
</g>
<g transform="matrix(1,0,0,1,-5872.2,-3300)">
<path d="M5953.02,3332.03C5955.96,3334.97 5955.96,3339.73 5953.02,3342.67C5943.94,3351.75 5925.51,3370.18 5915.85,3379.85C5914.2,3381.5 5911.96,3382.42 5909.62,3382.42C5907.29,3382.42 5905.05,3381.5 5903.4,3379.85L5907.08,3383.52C5908.73,3385.18 5910.97,3386.1 5913.3,3386.1C5915.64,3386.1 5917.87,3385.18 5919.53,3383.52C5929.19,3373.86 5947.62,3355.43 5956.7,3346.35C5959.64,3343.41 5959.64,3338.65 5956.7,3335.71L5953.02,3332.03Z" style="fill:rgb(28,137,40);"/>
</g>
<g transform="matrix(1,0,0,1,-5872.2,-3300)">
<path d="M5896.81,3373.26C5900.01,3376.45 5902.15,3378.6 5902.15,3378.6C5900.5,3376.95 5899.58,3374.71 5899.58,3372.38C5899.58,3370.04 5900.5,3367.8 5902.15,3366.15C5911.82,3356.49 5930.25,3338.06 5939.33,3328.98C5942.27,3326.04 5947.03,3326.04 5949.97,3328.98L5944.63,3323.64C5941.69,3320.7 5936.93,3320.7 5933.99,3323.64C5924.91,3332.72 5906.48,3351.15 5896.81,3360.81C5895.16,3362.46 5894.23,3364.7 5894.23,3367.04C5894.23,3369.37 5895.16,3371.61 5896.81,3373.26Z" style="fill:rgb(92,201,104);"/>
</g>
<g transform="matrix(0.349854,0,0,0.349854,-2028.67,-1109.96)">
<path d="M5896.81,3360.81C5895.16,3362.46 5894.23,3364.7 5894.23,3367.04C5894.23,3369.37 5895.16,3371.61 5896.81,3373.26C5900.01,3376.45 5903.88,3380.33 5907.08,3383.52C5908.73,3385.18 5910.97,3386.1 5913.3,3386.1C5915.64,3386.1 5917.87,3385.18 5919.53,3383.52C5929.19,3373.86 5947.62,3355.43 5956.7,3346.35C5959.64,3343.41 5959.64,3338.65 5956.7,3335.71C5953.07,3332.07 5948.27,3327.27 5944.63,3323.64C5941.69,3320.7 5936.93,3320.7 5933.99,3323.64C5924.91,3332.72 5906.48,3351.15 5896.81,3360.81Z" style="fill:rgb(242,175,13);"/>
</g>
<g transform="matrix(1,0,0,1,-5872.2,-3300)">
<path d="M5910.3,3373.93C5909.81,3373.37 5909.53,3372.65 5909.53,3371.9C5909.53,3371.08 5909.86,3370.3 5910.44,3369.72C5913.82,3366.34 5920.27,3359.89 5923.44,3356.72C5924.47,3355.69 5926.14,3355.69 5927.17,3356.72L5923.28,3352.83C5922.25,3351.81 5920.59,3351.81 5919.56,3352.83C5916.38,3356.01 5909.93,3362.46 5906.55,3365.84C5905.98,3366.42 5905.65,3367.2 5905.65,3368.02C5905.65,3368.83 5905.98,3369.62 5906.55,3370.19C5907.67,3371.31 5909.03,3372.67 5910.14,3373.78C5910.19,3373.83 5910.24,3373.88 5910.3,3373.93Z" style="fill:rgb(245,195,74);"/>
</g>
<g transform="matrix(1,0,0,1,-5872.2,-3300)">
<path d="M5943.98,3343.33L5949.03,3338.28C5949.81,3337.5 5949.81,3336.23 5949.03,3335.45C5948.25,3334.67 5946.98,3334.67 5946.2,3335.45L5941.15,3340.51C5940.37,3341.29 5940.37,3342.55 5941.15,3343.33C5941.93,3344.11 5943.2,3344.11 5943.98,3343.33Z" style="fill:rgb(21,103,30);"/>
</g>
<g transform="matrix(1,0,0,1,-5872.2,-3300)">
<path d="M5948.42,3347.77L5953.47,3342.72C5954.25,3341.94 5954.25,3340.67 5953.47,3339.89C5952.69,3339.11 5951.42,3339.11 5950.64,3339.89L5945.59,3344.94C5944.81,3345.72 5944.81,3346.99 5945.59,3347.77C5946.37,3348.55 5947.64,3348.55 5948.42,3347.77Z" style="fill:rgb(21,103,30);"/>
</g>
<g transform="matrix(1,0,0,1,-5872.2,-3300)">
<path d="M5935.1,3334.46L5940.15,3329.4C5940.94,3328.62 5940.94,3327.36 5940.15,3326.57C5939.37,3325.79 5938.11,3325.79 5937.33,3326.57L5932.27,3331.63C5931.49,3332.41 5931.49,3333.68 5932.27,3334.46C5933.05,3335.24 5934.32,3335.24 5935.1,3334.46Z" style="fill:rgb(21,103,30);"/>
</g>
<g transform="matrix(1,0,0,1,-5872.2,-3300)">
<path d="M5939.54,3338.89L5944.59,3333.84C5945.37,3333.06 5945.37,3331.79 5944.59,3331.01C5943.81,3330.23 5942.55,3330.23 5941.77,3331.01L5936.71,3336.07C5935.93,3336.85 5935.93,3338.11 5936.71,3338.89C5937.49,3339.68 5938.76,3339.68 5939.54,3338.89Z" style="fill:rgb(21,103,30);"/>
</g>
<g transform="matrix(1,0,0,1,-5872.2,-3300)">
<path d="M5931.83,3371.15C5931.83,3371.15 5939.12,3382.12 5944.59,3390.34C5946.03,3392.51 5948.37,3393.92 5950.96,3394.18C5953.56,3394.44 5956.13,3393.52 5957.97,3391.67L5939.37,3363.66L5931.83,3371.15Z" style="fill:rgb(102,102,102);"/>
</g>
<g transform="matrix(1,0,0,1,-5872.2,-3300)">
<path d="M5931.83,3371.15L5936.4,3378.02L5944.01,3370.82L5939.37,3363.66L5931.83,3371.15Z" style="fill:rgb(76,76,76);"/>
</g>
<g transform="matrix(1,0,0,1,-5872.2,-3300)">
<path d="M5947.94,3355.14L5939.37,3363.71L5945.41,3372.79L5951.15,3367.06C5947.32,3363.24 5947.94,3358.21 5947.94,3355.14Z" style="fill:rgb(182,182,182);"/>
</g>
<g transform="matrix(1,0,0,1,-5872.2,-3300)">
<path d="M5945.41,3372.79C5945.41,3372.79 5944.78,3371.38 5944.15,3369.99C5943.41,3368.34 5943.76,3366.41 5945.04,3365.14C5946.55,3363.63 5948.31,3361.87 5948.31,3361.87C5947.73,3359.38 5947.94,3356.93 5947.94,3355.14L5939.37,3363.71L5945.41,3372.79Z" style="fill:rgb(136,136,136);"/>
</g>
</g>
</g>
</g>
</svg>