<?xml version="1.0" ?>
<!DOCTYPE svg  PUBLIC '-//W3C//DTD SVG 1.1//EN'  'http://www.w3.org/Graphics/SVG/1.1/DTD/svg11.dtd'>
<!-- Uploaded to: SVG Repo, www.svgrepo.com, Generator: SVG Repo Mixer Tools -->
<svg fill="#000000" width="800px" height="800px" viewBox="0 0 129 129" style="fill-rule:evenodd;clip-rule:evenodd;stroke-linejoin:round;stroke-miterlimit:2;" version="1.1" xml:space="preserve" xmlns="http://www.w3.org/2000/svg" xmlns:serif="http://www.serif.com/" xmlns:xlink="http://www.w3.org/1999/xlink">
<g transform="matrix(1,0,0,1,-315,-678)">
<g id="grinder" transform="matrix(1,0,0,1,315.418,678.333)">
<rect height="128" style="fill:none;" width="128" x="0" y="0"/>
<g>
<g transform="matrix(0.827989,0.827989,-0.862002,0.862002,-12053.5,-12752.3)">
<path d="M15074.3,366.953L15067.3,366.953C15066.4,366.953 15065.6,367.688 15065.6,368.594C15065.6,369.499 15066.4,370.234 15067.3,370.234L15074.3,370.234C15075.2,370.234 15076,369.499 15076,368.594C15076,367.688 15075.2,366.953 15074.3,366.953Z" style="fill:rgb(51,51,51);"/>
</g>
<g transform="matrix(1,0,0,1,-6029.91,-3300)">
<path d="M6149.48,3348.11L6144.07,3342.7L6135.91,3350.86L6141.32,3356.27L6149.48,3348.11Z" style="fill:rgb(182,182,182);"/>
</g>
<g transform="matrix(1,0,0,1,-6029.91,-3300)">
<path d="M6146.72,3345.35L6144.07,3342.7L6135.91,3350.86L6138.56,3353.51L6146.72,3345.35Z" style="fill:rgb(136,136,136);"/>
</g>
<g transform="matrix(0.827989,0.827989,-0.862002,0.862002,-12053.8,-12752.6)">
<path d="M15074.6,351.436L15074.6,385.751" style="fill:none;"/>
</g>
<g transform="matrix(0.827989,0.827989,-0.862002,0.862002,-12053.8,-12752.6)">
<path d="M15072.9,351.436L15072.9,385.751C15072.9,386.657 15073.7,387.392 15074.6,387.392C15075.5,387.392 15076.3,386.657 15076.3,385.751L15076.3,351.436C15076.3,350.531 15075.5,349.796 15074.6,349.796C15073.7,349.796 15072.9,350.531 15072.9,351.436Z" style="fill:rgb(76,76,76);"/>
</g>
<g transform="matrix(0.827989,0.827989,-0.862002,0.862002,-12053.5,-12752.3)">
<path d="M15074.3,368.594L15067.3,368.594" style="fill:none;"/>
</g>
<g transform="matrix(1,0,0,1,-6029.91,-3300)">
<path d="M6046.69,3405.52L6031.62,3420.59C6030.84,3421.37 6030.84,3422.64 6031.62,3423.42C6032.4,3424.2 6033.67,3424.2 6034.45,3423.42L6049.52,3408.35C6050.3,3407.57 6050.3,3406.3 6049.52,3405.52C6048.74,3404.74 6047.48,3404.74 6046.69,3405.52Z" style="fill:rgb(38,38,38);"/>
</g>
<g transform="matrix(1,0,0,1,-6029.91,-3300)">
<path d="M6031.49,3423.28L6047.98,3406.8C6048.53,3406.25 6049.32,3406.09 6050.01,3406.31C6049.92,3406.02 6049.75,3405.75 6049.52,3405.52C6048.74,3404.74 6047.48,3404.74 6046.69,3405.52L6031.62,3420.59C6030.89,3421.33 6030.85,3422.49 6031.49,3423.28Z" style="fill:rgb(102,102,102);"/>
</g>
<g transform="matrix(1,0,0,1,-6029.91,-3300)">
<path d="M6119.46,3355.82L6099.22,3335.59C6099.22,3335.59 6058.51,3376.29 6043.48,3391.32C6042.02,3392.78 6041.2,3394.75 6041.2,3396.81C6041.2,3398.87 6042.02,3400.85 6043.48,3402.3C6046.35,3405.18 6049.86,3408.69 6052.74,3411.56C6054.19,3413.02 6056.17,3413.84 6058.23,3413.84C6060.29,3413.84 6062.26,3413.02 6063.72,3411.56C6078.75,3396.53 6119.46,3355.82 6119.46,3355.82Z" style="fill:rgb(37,183,54);"/>
</g>
<g transform="matrix(1,0,0,1,-6029.91,-3300)">
<path d="M6048.66,3407.48C6048.66,3407.48 6049.86,3408.69 6052.74,3411.56C6054.19,3413.02 6056.17,3413.84 6058.23,3413.84C6060.29,3413.84 6062.26,3413.02 6063.72,3411.56C6078.75,3396.53 6119.46,3355.82 6119.46,3355.82L6115.38,3351.75C6115.38,3351.75 6074.67,3392.45 6059.64,3407.48C6058.19,3408.94 6056.21,3409.76 6054.15,3409.76C6052.09,3409.76 6050.12,3408.94 6048.66,3407.48Z" style="fill:rgb(28,137,40);"/>
</g>
<g transform="matrix(1,0,0,1,-6029.91,-3300)">
<path d="M6103.9,3340.27L6099.22,3335.59C6099.22,3335.59 6058.51,3376.29 6043.48,3391.32C6042.02,3392.78 6041.2,3394.75 6041.2,3396.81C6041.2,3398.87 6042.02,3400.85 6043.48,3402.3L6048.16,3406.98C6046.71,3405.53 6045.89,3403.55 6045.89,3401.49C6045.89,3399.43 6046.71,3397.46 6048.16,3396.01C6063.19,3380.97 6103.9,3340.27 6103.9,3340.27Z" style="fill:rgb(92,201,104);"/>
</g>
<g transform="matrix(1,0,0,1,-6029.91,-3300)">
<path d="M6072.14,3403.14L6051.9,3382.9C6051.9,3382.9 6047.37,3387.43 6043.48,3391.32C6040.45,3394.35 6040.45,3399.27 6043.48,3402.3C6046.35,3405.18 6049.86,3408.69 6052.74,3411.56C6055.77,3414.59 6060.69,3414.59 6063.72,3411.56C6067.61,3407.67 6072.14,3403.14 6072.14,3403.14Z" style="fill:rgb(51,51,51);"/>
</g>
<g transform="matrix(1,0,0,1,-6029.91,-3300)">
<path d="M6056.74,3387.74L6051.9,3382.9C6051.9,3382.9 6047.37,3387.43 6043.48,3391.32C6040.45,3394.35 6040.45,3399.27 6043.48,3402.3L6048.32,3407.14C6045.29,3404.11 6045.29,3399.2 6048.32,3396.16C6052.21,3392.28 6056.74,3387.74 6056.74,3387.74Z" style="fill:rgb(102,102,102);"/>
</g>
<g transform="matrix(1,0,0,1,-6029.91,-3300)">
<path d="M6149.03,3326.24C6149.03,3326.24 6144.65,3321.86 6139.96,3317.17C6137,3314.21 6132.99,3312.55 6128.8,3312.55C6124.61,3312.55 6120.59,3314.21 6117.63,3317.17C6109.25,3325.55 6099.22,3335.59 6099.22,3335.59L6119.46,3355.82L6149.03,3326.24Z" style="fill:rgb(182,182,182);"/>
</g>
<g transform="matrix(1,0,0,1,-6029.91,-3300)">
<path d="M6104.36,3340.73L6118.17,3326.93C6121.13,3323.96 6125.15,3322.3 6129.33,3322.3C6133.52,3322.3 6137.54,3323.96 6140.5,3326.93L6144.43,3330.85L6149.03,3326.24C6149.03,3326.24 6144.65,3321.86 6139.96,3317.17C6137,3314.21 6132.99,3312.55 6128.8,3312.55C6124.61,3312.55 6120.59,3314.21 6117.63,3317.17C6109.25,3325.55 6099.22,3335.59 6099.22,3335.59L6104.36,3340.73Z" style="fill:rgb(200,200,200);"/>
</g>
<g transform="matrix(1,0,0,1,-6029.91,-3300)">
<path d="M6145.31,3322.52L6115.73,3352.1L6119.46,3355.82L6149.03,3326.24L6145.31,3322.52Z" style="fill:rgb(136,136,136);"/>
</g>
<g transform="matrix(0.827989,0.827989,-0.862002,0.862002,-12053.5,-12752.3)">
<path d="M15047,446.298L15047,450.278C15047,451.183 15047.8,451.918 15048.7,451.918C15049.7,451.918 15050.4,451.183 15050.4,450.278L15050.4,446.298C15050.4,445.393 15049.7,444.657 15048.7,444.657C15047.8,444.657 15047,445.393 15047,446.298Z" style="fill:rgb(38,38,38);"/>
</g>
<g transform="matrix(0.827989,0.827989,-0.862002,0.862002,-12048.3,-12747)">
<path d="M15047,446.298L15047,450.278C15047,451.183 15047.8,451.918 15048.7,451.918C15049.7,451.918 15050.4,451.183 15050.4,450.278L15050.4,446.298C15050.4,445.393 15049.7,444.657 15048.7,444.657C15047.8,444.657 15047,445.393 15047,446.298Z" style="fill:rgb(38,38,38);"/>
</g>
<g transform="matrix(0.827989,0.827989,-0.862002,0.862002,-12001.7,-12793.6)">
<path d="M15047,446.298L15047,450.278C15047,451.183 15047.8,451.918 15048.7,451.918C15049.7,451.918 15050.4,451.183 15050.4,450.278L15050.4,446.298C15050.4,445.393 15049.7,444.657 15048.7,444.657C15047.8,444.657 15047,445.393 15047,446.298Z" style="fill:rgb(21,103,30);"/>
</g>
<g transform="matrix(0.827989,0.827989,-0.862002,0.862002,-12006.4,-12798.3)">
<path d="M15047,446.298L15047,450.278C15047,451.183 15047.8,451.918 15048.7,451.918C15049.7,451.918 15050.4,451.183 15050.4,450.278L15050.4,446.298C15050.4,445.393 15049.7,444.657 15048.7,444.657C15047.8,444.657 15047,445.393 15047,446.298Z" style="fill:rgb(21,103,30);"/>
</g>
<g transform="matrix(0.827989,0.827989,-0.862002,0.862002,-12043,-12741.8)">
<path d="M15047,446.298L15047,450.278C15047,451.183 15047.8,451.918 15048.7,451.918C15049.7,451.918 15050.4,451.183 15050.4,450.278L15050.4,446.298C15050.4,445.393 15049.7,444.657 15048.7,444.657C15047.8,444.657 15047,445.393 15047,446.298Z" style="fill:rgb(38,38,38);"/>
</g>
</g>
</g>
</g>
</svg>