<?xml version="1.0" ?>
<!DOCTYPE svg  PUBLIC '-//W3C//DTD SVG 1.1//EN'  'http://www.w3.org/Graphics/SVG/1.1/DTD/svg11.dtd'>
<!-- Uploaded to: SVG Repo, www.svgrepo.com, Generator: SVG Repo Mixer Tools -->
<svg fill="#000000" width="800px" height="800px" viewBox="0 0 129 129" style="fill-rule:evenodd;clip-rule:evenodd;stroke-linejoin:round;stroke-miterlimit:2;" version="1.1" xml:space="preserve" xmlns="http://www.w3.org/2000/svg" xmlns:serif="http://www.serif.com/" xmlns:xlink="http://www.w3.org/1999/xlink">
<g transform="matrix(1,0,0,1,-630,-678)">
<g id="ladder" transform="matrix(1,0,0,1,630.835,678.333)">
<rect height="128" style="fill:none;" width="128" x="0" y="0"/>
<g>
<g transform="matrix(1,0,0,1,-1964.17,-4409.51)">
<path d="M2053.19,4478.84L2033.68,4478.84C2032.57,4478.84 2031.68,4479.74 2031.68,4480.84C2031.68,4481.94 2032.57,4482.84 2033.68,4482.84L2055.75,4482.84L2063.58,4495.09L2032.89,4495.09L2029.93,4489.53C2029.93,4489.53 2026.92,4492.57 2026.99,4492.72L2037.43,4513.76C2037.51,4514.09 2037.66,4514.39 2037.87,4514.64L2046.89,4532.8C2047.38,4533.78 2048.58,4534.19 2049.57,4533.7C2050.56,4533.21 2050.96,4532.01 2050.47,4531.02L2042.68,4515.34L2076.54,4515.34L2087.83,4532.98C2088.43,4533.91 2089.66,4534.19 2090.59,4533.59C2091.52,4532.99 2091.8,4531.76 2091.2,4530.83L2045.45,4459.32C2044.85,4458.39 2043.61,4458.12 2042.68,4458.72C2041.75,4459.31 2041.48,4460.55 2042.08,4461.48L2053.19,4478.84ZM2066.14,4499.09L2034.62,4499.09L2040.7,4511.34L2073.98,4511.34L2066.14,4499.09Z" style="fill:rgb(137,105,28);"/>
</g>
<g transform="matrix(1,0,0,1,-1964.17,-4409.51)">
<path d="M1979.8,4515.34L2013.66,4515.34L2005.87,4531.02C2005.38,4532.01 2005.79,4533.21 2006.77,4533.7C2007.76,4534.19 2008.96,4533.78 2009.46,4532.8L2026.61,4498.25C2026.73,4498.08 2026.83,4497.88 2026.89,4497.67L2062.62,4425.71C2063.97,4423.01 2063.81,4419.8 2062.22,4417.24C2060.63,4414.67 2057.83,4413.11 2054.81,4413.11C2054.81,4413.11 2054.81,4413.11 2054.81,4413.11C2045.87,4413.11 2037.55,4417.67 2032.73,4425.2C2014.04,4454.4 1965.14,4530.83 1965.14,4530.83C1964.55,4531.76 1964.82,4532.99 1965.75,4533.59C1966.68,4534.19 1967.92,4533.91 1968.51,4532.98L1979.8,4515.34ZM1990.2,4499.09L1982.36,4511.34L2015.64,4511.34L2021.73,4499.09L1990.2,4499.09ZM2000.6,4482.84L1992.76,4495.09L2023.71,4495.09L2029.79,4482.84L2000.6,4482.84ZM2010.99,4466.59L2003.16,4478.84L2031.78,4478.84L2037.86,4466.59L2010.99,4466.59ZM2039.85,4462.59L2059.04,4423.93C2059.77,4422.47 2059.68,4420.73 2058.82,4419.35C2057.96,4417.96 2056.45,4417.11 2054.81,4417.11L2054.81,4417.11C2047.24,4417.11 2040.18,4420.97 2036.1,4427.35L2013.55,4462.59L2039.85,4462.59Z" style="fill:rgb(183,140,37);"/>
</g>
</g>
</g>
</g>
</svg>